PathFileType	4	(X/Y/Z)	Patient4_TMGait_0pt4_02_left_09.trc.trc
DataRate	CameraRate	NumFrames	NumMarkers	Units	OrigDataRate	OrigDataStartFrame	OrigNumFrames
77.777777777778	77.777777777778	6	33	mm	77.777777777778	53	       141
Frame#	Time	Sacral			L.Shoulder			Chest			R.Shoulder			Neck			R.ASIS			L.ASIS			R.Thigh.Superior			R.Thigh.Lateral			R.Thigh.Inferior			R.Patella			L.Thigh.Superior			L.Thigh.Lateral			L.Thigh.Inferior			L.Patella			L.Shank.Superior			L.Shank.Lateral			L.Shank.Inferior			R.Shank.Superior			R.Shank.Lateral			R.Shank.Inferior			R.Heel			R.Midfoot.Superior			R.Midfoot.Lateral			R.Toe			L.Heel			L.Midfoot.Lateral			L.Midfoot.Superior			L.Toe			L.Elbow			L.Wrist			R.Elbow			R.Wrist			
		X1	Y1	Z1	X2	Y2	Z2	X3	Y3	Z3	X4	Y4	Z4	X5	Y5	Z5	X6	Y6	Z6	X7	Y7	Z7	X8	Y8	Z8	X9	Y9	Z9	X10	Y10	Z10	X11	Y11	Z11	X12	Y12	Z12	X13	Y13	Z13	X14	Y14	Z14	X15	Y15	Z15	X16	Y16	Z16	X17	Y17	Z17	X18	Y18	Z18	X19	Y19	Z19	X20	Y20	Z20	X21	Y21	Z21	X22	Y22	Z22	X23	Y23	Z23	X24	Y24	Z24	X25	Y25	Z25	X26	Y26	Z26	X27	Y27	Z27	X28	Y28	Z28	X29	Y29	Z29	X30	Y30	Z30	X31	Y31	Z31	X32	Y32	Z32	X33	Y33	Z33	

53	12.738571428571	900.076971271823	1006.621548970938	430.296095824609	1086.520908608378	1431.818156231986	233.174136923203	1190.337460287957	1362.998842156064	393.593600741677	1111.001591308228	1441.616074847499	567.542324487096	1083.604998509190	1496.888445482326	388.010144246060	1133.572923356297	947.772714869255	537.037310109782	1109.952214884081	964.781781837118	263.562155204087	1219.780455182625	778.131812023189	509.160350069998	1183.601542589531	658.795971981213	588.634564398242	1273.992168211664	621.231267208509	509.996428728847	1296.189081073733	510.682236646859	533.928109249234	1162.217392533688	751.547988364332	291.608491665211	1071.094625038234	635.436609182531	238.765962801159	1156.745005034994	558.183131461222	300.427586313108	1156.212075091849	488.483810176260	312.273700736005	1127.949047325391	416.605823239845	305.508638677391	1035.641271648596	304.216167841390	256.540870352975	1081.825330089749	192.208176661489	328.984982196081	1221.700126246365	433.255266925864	544.888078931603	1102.477974575425	394.281058969267	610.729328784340	1087.358571455287	283.773889900268	565.174685294931	888.554407291588	231.528193802019	546.978502576714	1053.006147262345	157.146647868842	581.941403807795	944.201879691077	164.707098379460	617.428726026221	1105.908640469711	34.768669743943	600.511063412071	950.064005114843	38.911976464453	372.151018134705	1022.732882423960	35.677601252225	290.413177500520	1106.674034669134	96.459760680817	316.710353513310	1234.997008363180	42.327597615120	285.912535035381	1064.309601699386	1083.983545233883	103.793375082787	1248.556258369313	896.390025506177	100.240188040573	1051.467645176211	1104.753149347261	702.169588050350	1109.143124149562	851.191080789355	729.758063404010	
54	12.751428571429	898.739606323036	1007.040725864938	428.121217560658	1088.581609497109	1432.129046936630	232.617640175956	1190.349820064481	1362.882366496579	394.134952867533	1109.325604541340	1441.592026850636	567.269396809215	1083.791618238799	1497.079541825037	387.562638192857	1131.507797387176	948.470457460516	536.546506567177	1109.757214534757	964.801617057232	262.875024390426	1219.405981875163	781.061304711056	508.230878944480	1185.027130024308	661.428269927118	588.154221916571	1275.848685762026	624.968043516467	509.517224751277	1300.050335834666	515.060169121212	533.802690253442	1160.651549054482	750.902391191543	291.180828267087	1068.863504622550	635.301282990822	238.220704918018	1153.785365734326	557.594338950047	300.215093317439	1152.791031548758	487.929979239535	312.213933561375	1124.270492165169	416.214562500842	305.381839178469	1031.653100860483	304.142885742321	256.274515417583	1077.093128487863	191.988903633173	328.913530621753	1227.292477402023	436.121749400065	544.891724125544	1109.141765857234	393.984819052713	610.606669649478	1097.248660348458	282.915882953308	565.248979654258	900.056945190560	224.212623157231	546.768640508563	1066.800557410703	155.704909300187	582.265220657093	957.790706764363	159.476420437233	617.398356528048	1123.634878209960	35.206745399109	601.120889052465	944.864520704422	38.952498480385	372.087809929184	1017.567626000297	35.684419795638	290.359588901147	1101.548051943789	96.425589619876	316.660544438035	1229.867536970462	42.184059275016	285.856406713458	1069.502463720454	1084.787164531464	101.730785237586	1258.835950399654	902.485383790074	101.039006570540	1042.621400309513	1107.109125706868	703.571639313307	1094.032955795170	852.957394642604	736.114101873504	
55	12.764285714286	897.401176852533	1007.641715993164	425.990259199932	1090.882889405569	1432.479221089190	232.181140441721	1190.468163278837	1362.810773096518	394.849678378049	1107.693796318580	1441.708635283793	567.075562699130	1084.045468673192	1497.338963822855	387.207461952536	1129.338968185161	949.194112114164	536.318922141199	1109.542176132069	964.773494209362	262.469222418425	1218.651214957024	783.760337036287	507.647614356936	1185.740081749358	663.838934284417	587.952373210077	1276.845102644258	628.259443342018	509.311025241289	1302.883905794054	519.262906714163	533.934291470443	1158.853658545016	750.278558400433	291.207908310688	1066.487643407994	635.252221757281	237.794196298232	1150.520772132614	557.050724722612	300.227915694199	1149.009449247933	487.426127626276	312.291058541740	1120.297872865890	415.904195772055	305.333804564487	1027.452202938324	304.106801092622	256.051273738898	1072.262796791817	191.828623780406	328.854626960464	1232.354861865889	438.689335139603	545.115752760301	1115.848071974349	392.523213070085	610.820067910713	1107.923942719665	281.008982496470	565.552181259867	912.972598938017	214.521755896324	546.979478723017	1082.303085743322	153.118802030882	582.742989559138	973.262856958982	152.356522163610	617.699191417130	1143.922321589249	35.347434334817	601.809723303468	939.663704982664	38.993193154287	372.023699486526	1012.396051786946	35.688344456240	290.308109341610	1096.413526105705	96.397937485825	316.607014942356	1224.728211862254	42.060835072431	285.804202760081	1074.738084095832	1085.662147878003	99.941959843810	1268.787613106363	908.606903295467	102.268350554664	1034.111846606045	1109.649890101217	704.825905731998	1079.761364423099	855.134652591094	741.576605469065	
56	12.777142857143	896.078981981369	1008.386185863558	423.921412314408	1093.347817754465	1432.850524323071	231.874659511198	1190.655094126739	1362.784015355272	395.725964917093	1106.083041541261	1441.943723979054	566.960959939657	1084.331699697819	1497.646951533226	386.951567390906	1127.095975423095	949.920262009200	536.352321257835	1109.280976805369	964.660515126048	262.356170328669	1217.523630823808	786.140692959864	507.420090330141	1185.713806947450	665.945771262784	588.029143317072	1276.936537669273	630.990328636049	509.369894268582	1304.611450046662	523.183841287821	534.306031847635	1156.866158542148	749.675266508322	291.653736978478	1063.997528672135	635.277656731333	237.480129713170	1146.998633051529	556.548557228133	300.442786506742	1144.924645346951	486.970766165038	312.483220086961	1116.079081691339	415.664368705186	305.356289698105	1023.073876710857	304.103799836983	255.869999440478	1067.354925895965	191.718094229186	328.810218909982	1236.822397214334	440.921987943044	545.552948215487	1122.612983698969	389.972148342797	611.392122340660	1119.339707368798	278.207463811404	566.103606121997	927.410059700274	202.818308071477	547.655348934060	1099.421293485369	149.625454530306	583.395262904444	990.619251560216	143.707846992293	618.372681124687	1166.487523796849	35.343337349535	602.582753724803	934.466698794076	39.033329482458	371.958223906435	1007.221119834895	35.689776419542	290.259546050714	1091.273452545677	96.375124687688	316.552310206666	1219.580967750578	41.954860313295	285.756247096794	1080.007365571349	1086.582639232802	98.423649108908	1278.406067017899	914.716153266383	103.929678009757	1025.976894213207	1112.292447955245	705.885311402622	1066.387494051421	857.572807411328	746.164087370556	
57	12.790000000000	894.790248247748	1009.227932982654	421.940758563754	1095.895651937104	1433.217386813670	231.705954942499	1190.874871893188	1362.792737287927	396.747309141354	1104.478724501407	1442.267401081545	566.924171394990	1084.622922795120	1497.978723105576	386.800222943838	1124.811425594482	950.622515797314	536.637753410864	1108.963866867820	964.440223163343	262.535087420052	1216.018773489993	788.104121037672	507.545126063450	1184.917684820060	667.672051945068	588.379684828890	1276.075492392569	633.053990355306	509.677829571786	1305.165813544420	526.719223686880	534.890826770461	1154.743354076130	749.086359032288	292.463653587883	1061.431822478312	635.359021952190	237.277037227603	1143.283969540308	556.078840522216	300.834901559340	1140.615410988618	486.558384516936	312.772003916423	1111.678031857487	415.479128211812	305.445743518212	1018.565762476206	304.127788965283	255.733655908257	1062.395694392790	191.644051511026	328.785704772353	1240.626396917972	442.801377565972	546.193142248755	1129.435599597997	386.461224052198	612.335074284436	1131.415959912792	274.717871251010	566.911599015797	943.432706413116	189.528004836780	548.815077190813	1118.012810717459	145.536073143094	584.232125610310	1009.810051476990	133.959033034973	619.434833015351	1190.995402689207	35.448800506604	603.437601065042	929.277962361483	39.072099150185	371.891218917770	1002.045735435972	35.689393013076	290.215040394198	1086.130945528617	96.355081515077	316.500278452703	1214.428061653840	41.861483319505	285.712951873688	1085.299122125111	1087.515796409305	97.172066887353	1287.690664983739	920.776911910388	106.021008212283	1018.242719642037	1114.948512893689	706.714178439777	1053.947129790393	860.131714841052	749.922846962212	
58	12.802857142857	893.552132054200	1010.116311186970	420.080422833621	1098.447992078007	1433.549402672478	231.680233881116	1191.096534997143	1362.819613912425	397.894039462098	1102.875893670620	1442.644207832127	566.963494661432	1084.900735291369	1498.306730064510	386.756943803343	1122.520063453189	951.273253814864	537.161270847701	1108.609862358665	964.115379053103	262.989576306553	1214.123674442843	789.549325829946	508.011368970890	1183.320224227036	668.951124786568	588.997761366899	1274.220864770631	634.360757348771	510.216708856300	1304.501391594028	529.775799593466	535.653012627882	1152.544697768849	748.501596021661	293.571227736780	1058.832783927463	635.473742486775	237.186580031062	1139.451538514288	555.628232038788	301.378607199507	1136.171385274993	486.179278488400	313.142530697180	1107.167124913934	415.328380180520	305.601640557321	1013.981579659186	304.171035500665	255.647740291193	1057.413280463301	191.590814413379	328.788160913843	1243.701543612754	444.327184351294	547.022481660225	1136.296948611907	382.162209247874	613.649264120709	1144.037590306953	270.783054676413	567.970899868962	961.042328853492	175.119326107039	550.449571146349	1137.882907311760	141.208661319670	585.249053676010	1030.723302003115	123.579441938783	620.873878765109	1217.065153715265	35.987192966676	604.361870078879	924.100445518177	39.108911693138	371.822981190934	996.872366796043	35.687942519863	290.175697189288	1080.988821891028	96.335573704399	316.455299060968	1209.271779901750	41.775491892861	285.674777839872	1090.597966364383	1088.424418198460	96.183837590091	1296.641889885970	926.755487985064	108.534814711126	1010.925111968740	1117.529565892912	707.287830546728	1042.455197281855	862.684575814951	752.918027336603	
